<mxfile host="65bd71144e">
    <diagram id="aPwMfFigivq6N1XT3T77" name="Página-1">
        <mxGraphModel dx="939" dy="1831" grid="1" gridSize="10" guides="1" tooltips="1" connect="1" arrows="1" fold="1" page="1" pageScale="1" pageWidth="827" pageHeight="1169" background="#FFFFFF" math="0" shadow="0">
            <root>
                <mxCell id="0"/>
                <mxCell id="1" parent="0"/>
                <mxCell id="12" value="Creacion/Asignacion de horarios" style="swimlane;childLayout=stackLayout;resizeParent=1;resizeParentMax=0;startSize=20;html=1;" vertex="1" parent="1">
                    <mxGeometry x="400" y="-200" width="550" height="620" as="geometry"/>
                </mxCell>
                <mxCell id="13" value="Coordinador/Director General de Gestión Académica" style="swimlane;startSize=20;html=1;" vertex="1" parent="12">
                    <mxGeometry y="20" width="320" height="600" as="geometry"/>
                </mxCell>
                <mxCell id="16" value="" style="ellipse;html=1;shape=startState;fillColor=#000000;strokeColor=#ff0000;" vertex="1" parent="13">
                    <mxGeometry x="145" y="40" width="30" height="30" as="geometry"/>
                </mxCell>
                <mxCell id="17" value="" style="edgeStyle=orthogonalEdgeStyle;html=1;verticalAlign=bottom;endArrow=open;endSize=8;strokeColor=#FF0000;exitX=0.508;exitY=0.873;exitDx=0;exitDy=0;exitPerimeter=0;entryX=0.5;entryY=0;entryDx=0;entryDy=0;" edge="1" source="16" parent="13" target="18">
                    <mxGeometry relative="1" as="geometry">
                        <mxPoint x="160" y="100" as="targetPoint"/>
                    </mxGeometry>
                </mxCell>
                <mxCell id="22" value="" style="edgeStyle=none;html=1;strokeColor=#FF0000;endArrow=open;endFill=0;" edge="1" parent="13" source="18" target="21">
                    <mxGeometry relative="1" as="geometry"/>
                </mxCell>
                <mxCell id="18" value="Buscar documento reptor" style="html=1;whiteSpace=wrap;" vertex="1" parent="13">
                    <mxGeometry x="105" y="100" width="110" height="60" as="geometry"/>
                </mxCell>
                <mxCell id="32" value="" style="edgeStyle=none;html=1;strokeColor=#FF0000;endArrow=open;endFill=0;" edge="1" parent="13" source="21" target="31">
                    <mxGeometry relative="1" as="geometry"/>
                </mxCell>
                <mxCell id="21" value="Buscar sinopticos de los trayectos" style="whiteSpace=wrap;html=1;" vertex="1" parent="13">
                    <mxGeometry x="100" y="190" width="120" height="60" as="geometry"/>
                </mxCell>
                <mxCell id="31" value="Buscar lista de porfesores en funcion de area de conocimiento" style="whiteSpace=wrap;html=1;" vertex="1" parent="13">
                    <mxGeometry x="100" y="290" width="120" height="60" as="geometry"/>
                </mxCell>
                <mxCell id="48" value="&lt;span style=&quot;color: rgb(0, 0, 0);&quot;&gt;Se crea el horario&lt;/span&gt;" style="html=1;whiteSpace=wrap;" vertex="1" parent="13">
                    <mxGeometry x="105" y="380" width="110" height="50" as="geometry"/>
                </mxCell>
                <mxCell id="61" value="" style="ellipse;html=1;shape=endState;fillColor=#000000;strokeColor=#ff0000;" vertex="1" parent="13">
                    <mxGeometry x="145" y="550" width="30" height="30" as="geometry"/>
                </mxCell>
                <mxCell id="64" style="edgeStyle=none;html=1;entryX=0.5;entryY=0;entryDx=0;entryDy=0;endArrow=open;endFill=0;strokeColor=#FF0000;exitX=0.5;exitY=1;exitDx=0;exitDy=0;" edge="1" parent="13" source="48" target="61">
                    <mxGeometry relative="1" as="geometry">
                        <mxPoint x="159.99999999999977" y="520" as="sourcePoint"/>
                    </mxGeometry>
                </mxCell>
                <mxCell id="15" value="Docente" style="swimlane;startSize=20;html=1;" vertex="1" parent="12">
                    <mxGeometry x="320" y="20" width="230" height="600" as="geometry"/>
                </mxCell>
                <mxCell id="38" value="" style="ellipse;html=1;shape=startState;fillColor=#000000;strokeColor=#ff0000;" vertex="1" parent="15">
                    <mxGeometry x="100" y="50" width="30" height="30" as="geometry"/>
                </mxCell>
                <mxCell id="39" value="" style="edgeStyle=orthogonalEdgeStyle;html=1;verticalAlign=bottom;endArrow=open;endSize=8;strokeColor=#ff0000;entryX=0.5;entryY=0;entryDx=0;entryDy=0;" edge="1" source="38" parent="15" target="43">
                    <mxGeometry relative="1" as="geometry">
                        <mxPoint x="114.99999999999977" y="120" as="targetPoint"/>
                    </mxGeometry>
                </mxCell>
                <mxCell id="43" value="Da su disponibilidad" style="html=1;whiteSpace=wrap;" vertex="1" parent="15">
                    <mxGeometry x="60" y="190" width="110" height="50" as="geometry"/>
                </mxCell>
                <mxCell id="41" value="" style="edgeStyle=orthogonalEdgeStyle;html=1;exitX=1;exitY=0.5;exitDx=0;exitDy=0;entryX=0;entryY=0.5;entryDx=0;entryDy=0;strokeColor=#FF0000;endArrow=open;endFill=0;" edge="1" parent="12" source="31" target="43">
                    <mxGeometry relative="1" as="geometry">
                        <mxPoint x="209.99999999999977" y="251.37931034482767" as="sourcePoint"/>
                        <mxPoint x="394.9999999999998" y="180" as="targetPoint"/>
                    </mxGeometry>
                </mxCell>
                <mxCell id="47" style="edgeStyle=orthogonalEdgeStyle;html=1;exitX=0.5;exitY=1;exitDx=0;exitDy=0;endArrow=open;endFill=0;strokeColor=#FF0000;entryX=1;entryY=0.5;entryDx=0;entryDy=0;" edge="1" parent="12" source="43" target="48">
                    <mxGeometry relative="1" as="geometry">
                        <mxPoint x="239.99999999999977" y="390" as="targetPoint"/>
                        <Array as="points">
                            <mxPoint x="435" y="425"/>
                        </Array>
                    </mxGeometry>
                </mxCell>
            </root>
        </mxGraphModel>
    </diagram>
</mxfile>